<?xml version="1.0" encoding="utf-8"?>
<!-- Generator: Adobe Illustrator 21.1.0, SVG Export Plug-In . SVG Version: 6.00 Build 0)  -->
<svg version="1.1" id="Layer_1" xmlns="http://www.w3.org/2000/svg" xmlns:xlink="http://www.w3.org/1999/xlink" x="0px" y="0px"
	 viewBox="0 0 89.8 89.8" style="enable-background:new 0 0 89.8 89.8;" xml:space="preserve">
<style type="text/css">
	.st0{fill:#860E1B;}
	.st1{fill:#FFFFFF;}
</style>
<title>btn1</title>
<g id="Layer_2_1_">
	<g id="Content_1_">
		<path class="st0" d="M19.2,45.9c0.3-0.3-0.5-0.5-0.7-0.8c1.2-1.1,1.6-2.7,1.1-4.2c1.4-2,1.5-5.1,3.3-7.7c-0.8-0.8-2.1-1.3-2.5-1.9
			c0.8-0.4,1.7,0.3,2.6,0.7c2.7-0.9,3.1-3.9,5.9-5c0.6-0.5-0.1-0.8,0.4-1.2c0.7,0.5,1.3-0.3,1.5-0.9c2,0.2,3.7-1.6,5.7-1.3
			c2.5-2.3,6.7-1.4,9.9-2.2c1.4,0.2,3,1,4.3,0.5c0.9,1,1.6,0.5,2.5,0.9c2,2.1,4.6,3.1,7.5,4.4c0.5,0.3,0.7,0.6,0.3,1
			c2,0.7,3.4,2.3,4,4.3c0.4,0.5,0.6,0.1,0.9,0.5c2.2,4.9,3.3,10.3,3.1,15.7l-0.6,0.8c0.4,2.2-1.4,4.8-1.2,7c-2.5,1.4-2,6.1-5.9,6.8
			c-0.6,0.5-0.1,0.9-0.5,1.4c-0.5-0.1-0.9,0.4-1.4,0.5c-0.9,2.5-4.4,3-6.6,4.7c-1.8-0.3-3.4,0.7-5,1.8c-1.5-0.2-3,0-4.3,0.6
			c-1.1-0.4-2.2-0.7-3.2,0.1c-3.3-1.7-7.4-3-11.1-5.1c-0.5-0.2-0.7,1.1-1.2,0.6c-0.7-0.5,0.5-1.3,0.2-1.9c-2.8-1.2-4.7-1.2-6.4-3.8
			c-0.1-0.2-0.3-0.9-0.4-1.1c-0.9-1.4-1.5-3-1.7-4.6c0-0.3,0.4-0.5,0.3-0.8c-0.1-1-0.4-1.9-0.7-2.8l0.4-0.3L19,52
			c-0.8-1.6,1.3-3.4,0.7-5.4l-0.3-0.3l0.1-0.3L19.2,45.9z"/>
		<path class="st0" d="M10.8,42.6c-3.4,0.5-7.1-0.5-8.2-4.2c-0.5-1.7-0.4-3.5,0.3-5.2c1.1-2,2.7-1.8,4.4-3
			C14.2,30,17.9,38.8,10.8,42.6z"/>
		<path class="st0" d="M19.2,32.1c-0.5,0-1-0.2-1.5-0.4C18.1,31.2,18.7,31.7,19.2,32.1z"/>
		<path class="st0" d="M1.7,39.5c0,0.1,0,0.5-0.2,0.6C1,40.2,1.3,38.8,1.7,39.5z"/>
		<path class="st0" d="M-4.6,36.2c-0.4,0.5-1.1,0.5-1.2-0.1C-5.4,35.6-5,36-4.6,36.2z"/>
		<path class="st0" d="M78.5,61.4c-0.5,0.6-1.4,0.8-2,1.4c-0.1,0.1-0.1,0.2,0,0.2c0,0,0,0,0,0c0.1,0.1,0.2,0.1,0.2,0c0,0,0,0,0,0
			c0.5-0.6,1.4-0.8,2-1.4c0.1-0.1,0.1-0.2,0-0.3C78.6,61.4,78.5,61.3,78.5,61.4z"/>
		<path class="st0" d="M16.5,53.2c1-0.3,2-0.5,3.1-0.9c0.1,0,0.2-0.2,0.2-0.3c0,0,0,0,0,0c-0.1-0.1-0.2-0.2-0.3-0.1
			c-1,0.4-2,0.6-3,0.9c-0.1,0-0.2,0.1-0.2,0.3c0,0,0,0,0,0C16.2,53.2,16.4,53.3,16.5,53.2C16.5,53.2,16.5,53.2,16.5,53.2z"/>
		<path class="st0" d="M15.9,46.4c1.2,0.1,2.5,0,3.7-0.2c0.1,0,0.2-0.1,0.2-0.2c0,0,0,0,0,0c0-0.1-0.1-0.2-0.3-0.2
			C18.2,46,17,46,15.8,45.9c-0.1,0-0.2,0.1-0.2,0.2c0,0,0,0,0,0C15.6,46.3,15.7,46.4,15.9,46.4C15.9,46.4,15.9,46.4,15.9,46.4z"/>
		<path class="st0" d="M24.2,24.1c0.7,0.6,1.4,1.3,2,2c0.1,0.1,0.3,0.1,0.4,0c0.1-0.1,0.1-0.3,0-0.4c0,0,0,0,0,0
			c-0.6-0.8-1.3-1.5-2-2.1c-0.1-0.1-0.3-0.1-0.4,0C24.1,23.7,24,23.9,24.2,24.1C24.1,24,24.2,24.1,24.2,24.1z"/>
		<path class="st1" d="M37.5,39.7v-5.1h-5.6v1.3h4.3v17.6c-0.7,0.4-1,1.3-0.7,2c0.4,0.7,1.3,1,2,0.7c0.3-0.1,0.5-0.4,0.7-0.7h11.2
			c0.4,0.8,1.3,1.1,2,0.7c0.8-0.4,1.1-1.3,0.7-2c-0.4-0.8-1.3-1.1-2-0.7c-0.3,0.1-0.6,0.4-0.7,0.7H38.2c-0.1-0.3-0.4-0.6-0.7-0.7
			v-4.5h12.9c1.3,0.1,2.5-0.5,3.3-1.6l4.1-7.7H37.5z"/>
	</g>
</g>
</svg>
