<?xml version="1.0" encoding="utf-8"?>
<!-- Generator: Adobe Illustrator 21.1.0, SVG Export Plug-In . SVG Version: 6.00 Build 0)  -->
<svg version="1.1" id="Layer_1" xmlns="http://www.w3.org/2000/svg" xmlns:xlink="http://www.w3.org/1999/xlink" x="0px" y="0px"
	 viewBox="0 0 89.8 89.8" style="enable-background:new 0 0 89.8 89.8;" xml:space="preserve">
<style type="text/css">
	.st0{fill:#860E1B;}
	.st1{fill:#FFFFFF;}
</style>
<title>btn1</title>
<g id="Layer_2_2_">
	<g id="Content_2_">
		<path class="st0" d="M71,49.6c-0.7,0.3-1.5-0.9-0.7-1.4C71,48.1,71,49,71,49.6z"/>
		<path class="st0" d="M18.5,57.8c0.7-0.6,1.6-1.1,2.5-1.2C20.2,57.2,19.3,57.6,18.5,57.8z"/>
		<path class="st0" d="M16.4,56.6c0.6-0.3,1.2-0.6,2-0.7C18.5,56.5,16.7,57.5,16.4,56.6z"/>
		<path class="st0" d="M74.4,41.6c0-0.4,0.2-0.5,0.7-0.6C75.4,41.5,74.7,41.4,74.4,41.6z"/>
		<path class="st0" d="M14.5,56l3.2-0.8C17.6,56.1,15.3,56.5,14.5,56z"/>
		<path class="st0" d="M68.8,41.2c0.2-0.3,0.7-0.7,1.1-0.5C69.9,41.3,69.5,41.2,68.8,41.2z"/>
		<path class="st0" d="M14.4,51.3c0.3-0.7,4.8-0.7,1.5-0.1C15.3,51.2,14.8,51,14.4,51.3z"/>
		<path class="st0" d="M69.2,34.8c0.3-0.3,0.7-0.5,1.1-0.7C72.7,33.1,70.6,34.8,69.2,34.8z"/>
		<path class="st0" d="M73.1,33.2c0.1,0.5-0.8,0.3-1.1,0.5C71.9,33.2,72.8,33.4,73.1,33.2z"/>
		<path class="st0" d="M65.3,24.4c-0.1-0.6-0.4-1.4-0.2-1.7c0.9-0.4,1.2,0.2,1.7,0.6c0.1,0.5-0.2,1-0.7,1.1
			C65.8,24.6,65.5,24.6,65.3,24.4z"/>
		<path class="st0" d="M20.2,34.5C19.3,34.6,20.1,33.2,20.2,34.5z"/>
		<path class="st0" d="M19.4,33.6c-0.6,0-1.2,0.1-1.2-0.8c0.4-0.2,0.9-0.1,1.1,0.4C19.4,33.3,19.4,33.5,19.4,33.6z"/>
		<path class="st0" d="M56.8,21.3c-0.1,0.8-0.5,1.6-1.2,2.1C56,22.7,55.9,21.7,56.8,21.3z"/>
		<path class="st0" d="M60.6,21.2c-0.1,0-0.3,0.1-0.4,0.1c-0.1-0.3,0.1-0.3,0.1-0.6l0.4-0.1C60.8,20.9,60.6,21,60.6,21.2z"/>
		<path class="st0" d="M43.9,21.1c-0.5-0.5-0.8-2.4,0-2.6C43.8,19.3,43.8,20.2,43.9,21.1z"/>
		<path class="st0" d="M32.6,15.7C32.6,16.4,32.5,14,32.6,15.7z"/>
		<path class="st0" d="M30.2,67.1c0-0.1-0.1-0.3-0.1-0.4c-0.2-0.5-0.9,0.1-0.7,0.4c-0.1-0.2-0.4-1.1-1.4-0.9v-0.6l-0.5-0.1
			c-0.5-1.7-1.8-2.2-2.5-3.7c-0.1-0.2-0.4-0.1-0.6,0c-0.3-0.8-0.6-1.8-1.4-2.1c0.1-2.4-2.2-3.6-2.8-5.8c-0.9-3.6,0.2-7.6-0.4-11.8
			c1-1.6,1.7-3.4,1.9-5.3c-0.3-1-1.6-0.5-1.8-1.8c1.1-0.5,1.1,0.9,2.1,0.7c1.9-3,4.2-5.7,6.2-8.5c3.2-2.2,5.9-2.9,8.7-4.6h0.3v-0.3
			c0.2,0,0.2,0.2,0.3,0.3c0.5,0.2,0.9-0.3,1.8-0.6l0.3,0.3l0.1-0.4c1.6,0.2,3.6,0.7,5.2-0.2l0.2,0.1l0.2-0.2c1.1,1,3,0.4,4.5,0.8
			c0.2,0.1,0.7,0.7,1,0.8c1.6,0.3,2.3,0.9,3.9,0.7v0.5l0.5-0.2c0.1,0.2,0.1,0.4,0.2,0.6c0.6,0.2,0.9,1.1,1.7,0.4
			c0.5,1.2,1.8,1.4,2.3,2.5c0.6-0.1,0.4-0.6,0.8-0.8c0.2-0.6,0.1,0.5-0.3,0.5c0.5,0.8,1.2,1.6,2,2.2c0.6-0.3,0.3-1.2,1.6-1.2
			c0.6,0.4,0.8,1.4,0.4,2c-0.1,0.1-0.2,0.2-0.3,0.3c0.2,0.6,0.5,1.2,0.8,1.8l0.6-0.1v0.3h0.3c0.1,0.2,0,0.2-0.2,0.2
			c0.5,3.6,3.5,7.7,3.7,11.5h-0.3l0.2,0.3c-0.3,0.7-0.2,1.6,0.3,2.1c-0.5,2.8-1.1,5.7-1.8,8.5c-1.5,1.9-2.4,4-2.9,6.2
			c-2.3,0.9-4.2,2.5-5.5,4.6h-0.3v0.3c-0.8,0.2-1,0.7-1.7,1c0.3,0.5,0.6,1,0.7,1.6c-0.5-0.1-0.5-0.8-0.9-1c-2.4,0.6-4.8,1.6-7.1,2.6
			l-0.6-0.4l-0.6,0.5c-1.4,0.4-2.7,0.6-4.2,0.6c-0.6,0.5-0.5,1.6-0.4,2.5c-0.7-0.4,0-1.4-0.3-2.1c-0.3,0-0.3,0.3-0.5,0.3l-0.2-0.3
			l-0.2,0.2c-0.1-0.7-0.8-0.3-0.9-1c-3.9,0.2-7.6-1-10.5-3.4l-0.4,0.1V67L30.2,67.1z"/>
		<path class="st0" d="M11.9,58.7c0.6-0.5,1.4-0.9,2.1-0.9C13.5,58.5,12.9,58.1,11.9,58.7z"/>
		<path class="st0" d="M60.8,26.4C60.7,26.1,62.8,24.4,60.8,26.4z"/>
		<path class="st0" d="M46.4,74.2c0,0.9,0,2,0,3c0,0.2,0.1,0.3,0.3,0.3c0.2,0,0.3-0.1,0.3-0.3c-0.1-0.9,0-2,0-3
			c0-0.2-0.1-0.3-0.3-0.3C46.6,73.9,46.4,74,46.4,74.2z"/>
		<path class="st0" d="M36,18c0.1,0.3,0.2,0.6,0.3,0.9c0.2,0.9,0.3,1.8,0.6,2.7c0.1,0.3,0.2,0.7,0.3,1c0,0.1,0.1,0.2,0.2,0.1l0,0
			c0.1,0,0.1-0.1,0.1-0.2c-0.1-0.3-0.2-0.7-0.3-1c-0.2-0.8-0.3-1.8-0.6-2.7c-0.1-0.3-0.2-0.6-0.3-0.9c0-0.1-0.2-0.1-0.2-0.1
			C36,17.6,36,17.9,36,18L36,18z"/>
		<path class="st0" d="M45.2,17.3c0.2,1.5-0.4,2.8-0.1,4.4c0,0.1,0.1,0.2,0.2,0.1c0.1,0,0.2-0.1,0.1-0.2c-0.3-1.4,0.3-2.7,0.1-4.3
			c0-0.1-0.1-0.2-0.2-0.2l0,0C45.2,17.1,45.2,17.2,45.2,17.3z"/>
		<path class="st0" d="M55.6,22c-0.4,0.7-0.7,1.6-0.9,2.4l0.1,0.2l0.2-0.1c0.1-0.8,0.4-1.7,0.8-2.4l-0.1-0.2L55.6,22z"/>
		<path class="st0" d="M71.2,44c-0.8,0.1-1.7,0.2-2.5,0.2l-0.2,0.1l0.1,0.2c0.8,0,1.7,0,2.6-0.2c0.1,0,0.1,0,0.2-0.1l0,0
			C71.4,44.1,71.3,44,71.2,44z"/>
		<path class="st0" d="M58.5,66.3c0.8,0.7,1.2,1.7,2,2.5c0.1,0.1,0.2,0.1,0.3,0c0.1-0.1,0.1-0.2,0-0.3c-0.7-0.7-1.1-1.8-2.1-2.5
			c-0.1-0.1-0.2-0.1-0.3,0l0,0C58.4,66,58.4,66.2,58.5,66.3L58.5,66.3z"/>
		<path class="st0" d="M49,70.4c0.2,0.2,0.3,0.4,0.3,0.7c0.1,0.3,0.1,0.7,0.2,1.1v0.2c0,0.1,0.2,0.2,0.3,0.2l0,0
			c0.1,0,0.2-0.2,0.2-0.3v-0.2c-0.1-0.3-0.1-0.7-0.2-1.1c-0.1-0.3-0.2-0.6-0.4-0.9c-0.1-0.1-0.2-0.1-0.3,0l0,0
			C48.9,70.1,48.9,70.3,49,70.4z"/>
		<path class="st0" d="M49,70.1c-0.2,0.5-0.3,1.1-0.2,1.8c0.1,0.6,0.3,1.1,0.3,1.7c0,0.1,0.1,0.2,0.2,0.2s0.2-0.1,0.2-0.2
			c-0.1-0.5-0.3-1.1-0.4-1.7c-0.1-0.5-0.1-1,0.2-1.6l-0.1-0.2H49z"/>
		<path class="st0" d="M42.7,71.9c0,0.9,0,2,0,2.9c0,0.1,0.1,0.2,0.2,0.2l0,0c0.1,0,0.2-0.1,0.2-0.2c0-0.9,0-2,0-3
			c0-0.1-0.1-0.2-0.2-0.2l0,0C42.8,71.7,42.7,71.8,42.7,71.9L42.7,71.9z"/>
		<path class="st1" d="M38.1,39.9v-5.2h-5.7v1.4h4.4V54c-0.7,0.4-1,1.4-0.7,2.1c0.4,0.7,1.4,1,2.1,0.7c0.3-0.1,0.5-0.4,0.7-0.7h11.5
			c0.4,0.7,1.2,1.1,2.1,0.7c0.7-0.4,1.1-1.2,0.7-2.1c-0.4-0.8-1.2-1.1-2.1-0.7c-0.3,0.1-0.6,0.4-0.7,0.7H38.9
			c-0.1-0.3-0.4-0.6-0.7-0.7v-4.7h13.2c1.4,0.1,2.6-0.5,3.3-1.7l4.2-7.8L38.1,39.9z"/>
	</g>
</g>
</svg>
