<?xml version="1.0" encoding="utf-8"?>
<!-- Generator: Adobe Illustrator 21.1.0, SVG Export Plug-In . SVG Version: 6.00 Build 0)  -->
<svg version="1.1" id="Layer_1" xmlns="http://www.w3.org/2000/svg" xmlns:xlink="http://www.w3.org/1999/xlink" x="0px" y="0px"
	 viewBox="0 0 89.8 89.8" style="enable-background:new 0 0 89.8 89.8;" xml:space="preserve">
<style type="text/css">
	.st0{fill:#860E1B;}
	.st1{fill:#FFFFFF;}
</style>
<title>btn1</title>
<g id="Layer_2">
	<g id="Content">
		<path class="st0" d="M35.8,74.6l-0.5,0.1c-0.3-0.2-0.4-0.7-0.2-1.1C35.7,73.5,35.9,74,35.8,74.6z"/>
		<path class="st0" d="M63,64.9L62.5,65c-0.2-0.2,0-0.9-0.4-0.8C62.2,63.6,63,64.4,63,64.9z"/>
		<path class="st0" d="M25.6,67.2C26.5,71.9,21.3,66.5,25.6,67.2z"/>
		<path class="st0" d="M14.1,47.2c0,0.2-1.3,0.7-1.3,0.1C13.5,47,13.6,47.4,14.1,47.2z"/>
		<path class="st0" d="M66.1,31.6c0-0.6,1.3-0.5,1.2-1.2C67.9,30.8,66.7,31.4,66.1,31.6z"/>
		<path class="st0" d="M66.2,26.1c-0.4,0.4-0.7-0.6-0.1-0.5L66.2,26.1z"/>
		<path class="st0" d="M23,25.6c-0.2-0.6-0.1-1.1,0.2-1.4c0.3-0.3,0.4,0.2,0.8,0.2C24.3,25.2,23.7,25.9,23,25.6z"/>
		<path class="st0" d="M48.4,18.8c-0.6,0-0.4,0.4-0.8,0.2c-0.1-0.3,0.1-0.4,0-0.7C48.1,18,48.4,18.2,48.4,18.8z"/>
		<path class="st0" d="M22.6,21.4c0.2-0.2,0.3-0.4,0.4-0.6c2.5-0.3,4.2,0.8,5.4,2.9C26.3,24,23.6,23.6,22.6,21.4z"/>
		<path class="st0" d="M49.1,72c-0.1-0.2-0.1-0.4-0.2-0.7c-1.4,0.5-3.2-0.6-3.8,0.4c-0.9-1.1-2.9-0.2-4.1-0.8
			c-0.9,0.1-0.7,0.9-1.4,1.3c-0.3-0.5,0.1-0.7-0.1-1.3c-1.3-0.2-2.4-0.6-3.6-1.2c-0.5,0.3-0.5,0.1-0.8,0.4v-0.2h-0.2
			c0-0.1,0-0.1,0-0.2c-1.8-0.5-2.8-1.8-4.4-2.1c-0.1,0.1-0.3,0.2-0.5,0.3l-0.3-0.5l-0.5-0.2c0.5-1.1-1.5-1.2-2.2-2.1
			c-0.1-0.2,0-0.7-0.2-0.8c-1.1-1.3-2.3-2.4-3.3-3.4c-0.3,0.2-0.6,0.4-0.9,0.6c-0.6,0-1.7,0.3-1.6,0.2c0.6-0.5,1.4-1.1,2-1.5
			c-0.1-0.9-0.2-1.6-1.1-1.8c-0.1-3.3-1.8-6-2.6-8.2l0.4,0h-0.3c0-0.2,0.2-0.2,0.3-0.2c0.2-1.6,0.1-3.3-0.4-4.7l0.2-0.3l-0.2-0.4
			c0.4-0.1,0.2-0.6,0.5-0.8c-0.4-0.2-0.9-0.4-1.4-0.4c0.3-0.6,1.2,0.2,2-0.3c0.7-1.8,1.2-3.7,1.2-5.6c2.4-1.8,2-5.3,5-6.7
			c0.8-0.9,0.8-2.2,2.2-2.8c-0.2-0.5-0.5-0.7-0.8-1.2c0.4,0.2,1.4,1.2,2.4,0.5c0.4-1.3,1.3-1.8,2.9-2.2c2-0.5,5.1-2.5,6.8-2.1
			c0.8-0.7,1.1-0.1,2.4-0.6l0.2,0.3l0.1-0.4c1.7,0,3.7,0.3,5.1,0.2H48l0.2-0.1c3.8,1.2,7.4,2.5,10.3,5.1c0.9-0.2,0.6-1.9,1.7-1.5
			c0.2,0.9-0.5,1.3-0.8,1.9c0.7,0.4,1.2,1.3,1.9,1.6c0.5-0.2,0.9-0.7,1.2-1.3c0.5,0.4-0.5,1.1-0.7,1.5c0.6,1.2,1.5,2.2,2.4,3.2
			l-0.3,0.5l0.5,0.1l0.1,0.3v0.2h0.2c0.1,0.1,0,0.2-0.1,0.2c0.2,0.6,0.8,0.8,1.3,1.2c0.1,1.3,1.1,1.9,1.4,3.3c0.3,1.1,0,2.1,0.5,3.1
			c0.8,1.3,2.9,1.6,2.9,3.4c-0.3,0.3-1.4,0.1-2,0.1c-0.4,0.6-1.1,3.4,0.1,3.5c0,0.2-0.3,0.2-0.5,0.3c0.1,2.6-2.4,5.2-1.3,7.5
			c0.3,0.7-0.4,0.1-0.5,0c-0.8,0.8,0.2,1.8,0.6,2.4c-0.4-0.1-0.6-0.7-1.3-0.6c0.2,0.6,0.7,1.1,1.5,1.1c-0.2,0.9-1.2-0.3-1.6-0.5
			c-1.5,1.4-2.6,3.1-3.4,5c-1.7,1.2-3.7,2.1-3.7,4.3h-0.3v0.3c-0.3,0-0.2-0.8-0.8-0.3l-0.6,0.1l0.4,0.5c-0.6,0.5,0.1,1.1,0.2,1.8
			c-0.5-0.2-0.6-1.3-1.1-1.8c-1.7,1.2-3.8,1.3-5.2,2.2h-0.2v0.3c-0.2,0-0.2-0.3-0.3-0.5c-0.2,0.1-0.3,0.4-0.4,0.6H50v0.3
			c-0.4-0.3-0.6,0.1-0.4,0.6h-0.2L49.1,72z"/>
		<path class="st0" d="M47.8,15.9c-0.1,0.5-0.2,1.2-0.2,1.7C47.5,18,47.2,16,47.8,15.9"/>
		<path class="st0" d="M21.3,16c0.6,0.4,1.1,1.1,1.4,1.7C22.1,17.4,21.6,16.8,21.3,16"/>
		<path class="st0" d="M68.1,69.1c0.2,0.4,0.4,0.7,0.8,1.1c0.3,0.3,0.5,0.6,0.8,0.9c0.1,0.1,0.2,0.1,0.3,0c0-0.1,0.1-0.1,0-0.2
			c-0.2-0.3-0.5-0.7-0.8-0.9c-0.3-0.2-0.5-0.5-0.7-0.9c0-0.1-0.2-0.2-0.3-0.1l0,0C68.1,68.9,68,69,68.1,69.1z"/>
		<path class="st0" d="M37.9,71.4c-0.9,2.6-2.2,5.2-3.1,7.9c0,0.1,0,0.2,0.1,0.2l0,0c0.1,0,0.2,0,0.2-0.1l0,0
			c0.8-2.6,2.1-5.3,3.1-7.9c0-0.1,0-0.2-0.1-0.2l0,0C38,71.3,37.9,71.3,37.9,71.4L37.9,71.4z"/>
		<path class="st0" d="M24.7,72.7c-2.1,2.4-3.7,5.1-5.9,7.3c-0.1,0.1-0.1,0.2,0,0.3c0.1,0.1,0.2,0.1,0.3,0l0,0
			c2.2-2.2,3.8-5,5.9-7.3c0.1-0.1,0.1-0.2,0-0.3l0,0C25,72.6,24.9,72.6,24.7,72.7L24.7,72.7z"/>
		<path class="st0" d="M72.6,62.7c-0.7-0.4-1.4-0.8-2-1.4h-0.1v0.1c0.6,0.5,1.3,0.9,2,1.4L72.6,62.7L72.6,62.7z"/>
		<path class="st0" d="M34,71.9c0.4-0.5,0.8-1.3,1.2-1.9v-0.1H35c-0.3,0.6-0.6,1.3-1.1,1.9L34,71.9L34,71.9z"/>
		<path class="st0" d="M29.4,67.1c-0.4,0.3-0.7,0.6-1.1,1.1c-0.3,0.3-0.5,0.7-0.7,1.1c-0.2,0.2-0.1,0.5,0.1,0.7
			c0.2,0.2,0.4,0.2,0.6,0c0.3-0.3,0.6-0.7,0.8-1.2c0.2-0.3,0.5-0.6,0.8-0.9c0.2-0.2,0.2-0.5,0.1-0.7C29.9,66.9,29.6,66.9,29.4,67.1z
			"/>
		<path class="st0" d="M19.6,50.1c-1.5,0.2-2.9,0.2-4.4,0.3c-0.1,0-0.1,0.1-0.1,0.2c0,0.1,0.1,0.1,0.1,0.1c1.5-0.1,2.9-0.1,4.4-0.2
			c0.1,0,0.1-0.1,0.1-0.2C19.7,50.2,19.7,50.1,19.6,50.1z"/>
		<path class="st0" d="M19.4,44.5c-1.7-0.1-3.4,0-5-0.2c-0.2,0-0.3,0.1-0.3,0.2l0,0c0,0.2,0.1,0.3,0.3,0.3l0,0
			c1.7,0.2,3.4,0.1,5,0.2c0.2,0,0.3-0.1,0.3-0.3l0,0C19.7,44.7,19.6,44.5,19.4,44.5L19.4,44.5z"/>
		<path class="st0" d="M42.1,20.1c0.1,0.6,0.2,1.3,0.4,2c0,0.1,0.1,0.3,0.1,0.4c0,0.1,0.1,0.1,0.2,0.1l0,0c0.1,0,0.1-0.1,0.1-0.2
			l0,0c0-0.1-0.1-0.3-0.1-0.4c-0.1-0.6-0.2-1.3-0.4-2c0-0.1-0.1-0.1-0.2-0.1S42.1,20,42.1,20.1L42.1,20.1L42.1,20.1z"/>
		<path class="st0" d="M48.7,17c0.2,1.9-0.8,3.5-0.7,5.5c0,0.1,0.1,0.2,0.1,0.2l0,0c0.1,0,0.1-0.1,0.1-0.1l0,0
			c-0.1-1.8,1.1-3.5,0.7-5.5"/>
		<path class="st0" d="M65.5,31.8c-0.5,0.4-1.1,0.7-1.7,0.9l0,0c-0.1,0-0.2,0.1-0.2,0.2l0,0c0,0.1,0.1,0.2,0.3,0.2l0,0
			c0.6-0.3,1.3-0.6,1.8-1.1c0.1-0.1,0.1-0.2,0.1-0.3C65.7,31.8,65.6,31.7,65.5,31.8z"/>
		<path class="st0" d="M64.6,33.8c0.5-0.4,1.2-0.8,1.8-1.1l0,0l0.1-0.1l-0.1-0.1l0,0c-0.6,0.2-1.3,0.6-1.9,1.2v0.2L64.6,33.8z"/>
		<path class="st0" d="M57.9,68c0.3,0.9,0.9,1.7,1.3,2.6c0,0.1,0.1,0.1,0.2,0.1s0.1-0.1,0.1-0.2c-0.3-0.9-0.9-1.7-1.3-2.6
			c0-0.1-0.1-0.1-0.2-0.1S57.9,67.9,57.9,68L57.9,68z"/>
		<path class="st0" d="M56.7,68.2c0.3,0.1,0.5,0.3,0.7,0.6s0.3,0.6,0.4,0.9c0,0.1,0.1,0.1,0.2,0.1c0.1,0,0.1-0.1,0.1-0.2
			c-0.2-0.3-0.2-0.6-0.4-1.1c-0.2-0.4-0.5-0.6-0.8-0.7c-0.1,0-0.2,0-0.2,0.1C56.6,68.1,56.6,68.2,56.7,68.2z"/>
		<path class="st0" d="M50.7,70.7c0.7,3.2,1.3,6.4,1.5,9.7c0,0.1,0.1,0.2,0.2,0.2l0,0c0.1,0,0.2-0.1,0.2-0.2
			c-0.2-3.3-0.7-6.5-1.6-9.8c0-0.1-0.1-0.2-0.2-0.2C50.7,70.5,50.7,70.6,50.7,70.7L50.7,70.7z"/>
		<path class="st0" d="M49.7,71.2l0.1,0.3c0.3,1.4,0.4,2.7,0.6,4.1c0,0.1,0.1,0.1,0.2,0.1c0.1,0,0.1-0.1,0.1-0.2
			c-0.2-1.4-0.3-2.8-0.6-4.2c0-0.1-0.1-0.2-0.1-0.3c0-0.1-0.1-0.1-0.2-0.1S49.7,71,49.7,71.2C49.7,71.1,49.7,71.2,49.7,71.2z"/>
		<path class="st0" d="M49.1,72.1c0.1,0.9,0.2,2,0.3,2.9l0.1,0.1l0.1-0.1c-0.1-0.9-0.2-2-0.3-2.9L49.2,72L49.1,72.1z"/>
		<path class="st0" d="M68.2,66.5C67,65.3,66,64.2,64.8,63h-0.2v0.2c1.2,1.1,2.2,2.3,3.5,3.5h0.2V66.5z"/>
		<path class="st0" d="M74.4,61.4c-1.3-0.6-2.4-1.3-3.5-2.1h-0.2v0.2c1.1,0.8,2.3,1.5,3.5,2.1h0.2V61.4z"/>
		<path class="st0" d="M73.6,48.5c-0.6,0-1.4,0-2,0l-0.1,0.1l0.2,0.1c0.7,0,1.4,0,2.1,0l0.1-0.1L73.6,48.5z"/>
		<path class="st0" d="M27.5,17.8c0.6,1.4,1.8,2.4,2.4,3.7l0.1,0.1v-0.2c-0.6-1.3-1.7-2.4-2.4-3.7h-0.2v0.1H27.5z"/>
		<path class="st0" d="M19.5,17c0.5,0.8,1.2,1.6,1.9,2.2h0.1v-0.1c-0.7-0.6-1.4-1.4-1.8-2.1"/>
		<path class="st1" d="M38,40.7v-5.3h-5.8v1.4h4.4V55c-0.7,0.4-1.1,1.4-0.7,2.1c0.4,0.7,1.4,1.1,2.1,0.7c0.3-0.1,0.5-0.4,0.7-0.7
			h11.6c0.4,0.7,1.3,1.2,2.1,0.7c0.7-0.4,1.2-1.3,0.7-2.1c-0.4-0.8-1.3-1.2-2.1-0.7c-0.3,0.1-0.6,0.4-0.7,0.7H38.8
			c-0.1-0.3-0.4-0.6-0.7-0.7v-4.7h13.4c1.4,0.1,2.6-0.5,3.4-1.7l4.2-7.9C59,40.7,38,40.7,38,40.7z"/>
	</g>
</g>
</svg>
