<?xml version="1.0" standalone="no"?> <!DOCTYPE svg PUBLIC "-//W3C//DTD SVG 1.0//EN" "http://www.w3.org/TR/2001/REC-SVG-20010904/DTD/svg10.dtd" > <svg xmlns="http://www.w3.org/2000/svg" width="100%" height="100%">
<defs >
<font horiz-adv-x="1190" ><font-face
    font-family="Cybertron"
    units-per-em="2048"
    panose-1="2 0 5 0 0 0 0 0 0 0"
    ascent="2175"
    descent="-750"
    alphabetic="0" />
<missing-glyph horiz-adv-x="1650" d="M0 0T0 200V1300Q0 1500 200 1500H1300Q1500 1500 1500 1300V200Q1500 0 1300 0H200Q0 0 0 200ZM1475 25T1475 201V1300Q1475 1475 1300 1475H200Q26 1475 25 1300V200Q26 25 200 25H1301Q1475 25 1475 201Z" />
<glyph unicode=" " glyph-name="space" horiz-adv-x="800" />
<glyph unicode="!" glyph-name="exclam" horiz-adv-x="500" d="M400 0H0V300H400V0ZM0 1400H400V400H0V1400Z" />
<glyph unicode="&quot;" glyph-name="quotedbl" horiz-adv-x="1000" d="M0 1100V1400H400V1100L200 800H0L200 1100H0ZM500 1100V1400H900V1100L700 800H500L700 1100H500Z" />
<glyph unicode="#" glyph-name="numbersign" horiz-adv-x="1200" d="M600 300H500V100H100V300H0V600H100V800H0V1100H100V1300H500V1100H600V1300H1000V1100H1100V800H1000V600H1100V300H1000V100H600V300ZM500 600H600V800H500V600Z" />
<glyph unicode="$" glyph-name="dollar" horiz-adv-x="1300" d="M400 1300V1400H800V1300H1200L1100 1000H450Q400 1000 400 951V875Q400 825 450 825H1000Q1200 825 1200 625V301Q1200 100 1000 100H800V0H400V100H0L100 400H750Q800 400 800 450V526Q800 575
750 575H200Q0 575 0 775V1100Q0 1300 200 1300H400Z" />
<glyph unicode="%" glyph-name="percent" horiz-adv-x="1000" d="M400 850Q400 800 451 800H550Q600 800 600 850V1050Q600 1100 550 1100H451Q400 1100 400 1050V850ZM1000 350Q1000 300 1051 300H1150Q1200 300 1200 350V550Q1200 600 1150 600H1051Q1000 600
1000 550V350ZM849 1397L850 1400H1275L1096 900H1400Q1600 900 1600 700V200Q1600 0 1400 0H800Q787 0 775 1V0H350L529 500H200Q0 500 0 700V1200Q0 1400 200 1400H800Q826 1400 849 1397Z" />
<glyph unicode="&amp;" glyph-name="ampersand" horiz-adv-x="1300" d="M1000 825H1200V575H1000V300H1200L1100 0H200Q0 0 0 200V575Q0 675 75 700Q0 725 0 825V1200Q0 1400 200 1400H800L700 1100H450Q400 1100 400 1050V875Q400 825 450 825H600V1000H1000V825ZM600
575H450Q400 575 400 525V350Q400 300 450 300H600V575Z" />
<glyph unicode="&apos;" glyph-name="quotesingle" horiz-adv-x="500" d="M0 1100V1400H400V1100L200 800H0L200 1100H0Z" />
<glyph unicode="(" glyph-name="parenleft" horiz-adv-x="700" d="M400 1200T400 1150V250Q400 200 450 200H600L500 -100H200Q0 -100 0 100V1300Q0 1500 200 1500H600L500 1200H450Q400 1200 400 1150Z" />
<glyph unicode=")" glyph-name="parenright" horiz-adv-x="700" d="M200 200T200 250V1150Q200 1200 150 1200H0L100 1500H400Q600 1500 600 1300V100Q600 -100 400 -100H0L100 200H150Q200 200 200 250Z" />
<glyph unicode="*" glyph-name="asterisk" horiz-adv-x="1200" d="M750 1176L964 1245L1087 864L874 795L1006 613L682 378L550 559L418 378L94 613L226 795L13 864L136 1245L350 1176V1400H750V1176Z" />
<glyph unicode="+" glyph-name="plus" horiz-adv-x="1200" d="M350 550H0V850H350V1200H750V850H1100V550H750V200H350V550Z" />
<glyph unicode="," glyph-name="comma" horiz-adv-x="500" d="M0 0V300H400V0L200 -300H0L200 0H0Z" />
<glyph unicode="-" glyph-name="hyphen" horiz-adv-x="1150" d="M0 850H1050V550H0V850Z" />
<glyph unicode="." glyph-name="period" horiz-adv-x="500" d="M400 0H0V300H400V0Z" />
<glyph unicode="/" glyph-name="slash" horiz-adv-x="1000" d="M900 1400L400 0H-25L475 1400H900Z" />
<glyph unicode="0" glyph-name="zero" horiz-adv-x="1300" d="M1200 200Q1200 0 1000 0H200Q0 0 0 200V1200Q0 1400 200 1400H1000Q1200 1400 1200 1200V200ZM400 350Q400 300 451 300H750Q800 300 800 350V1050Q800 1100 750 1100H451Q400 1100 400 1050V350Z" />
<glyph unicode="1" glyph-name="one" horiz-adv-x="700" d="M200 0V1100H1L100 1400H600V0H200Z" />
<glyph unicode="2" glyph-name="two" horiz-adv-x="1300" d="M800 875V1051Q800 1100 750 1100H0L100 1400H1000Q1200 1400 1200 1200V775Q1200 575 1000 575H450Q400 575 400 526V300H1200L1100 0H0V625Q0 825 200 825H750Q800 825 800 875Z" />
<glyph unicode="3" glyph-name="three" horiz-adv-x="1300" d="M250 575V825H750Q800 825 800 875V1050Q800 1100 750 1100H0L100 1400H1000Q1200 1400 1200 1200V825Q1200 725 1125 700Q1200 675 1200 575V200Q1200 0 1000 0H0L100 300H750Q800 300 800 350V525Q800
575 750 575H250Z" />
<glyph unicode="4" glyph-name="four" horiz-adv-x="1300" d="M800 600V1400H1200V0H800V300H0V1400H400V600H800Z" />
<glyph unicode="5" glyph-name="five" horiz-adv-x="1300" d="M400 875H1000Q1200 875 1200 675V201Q1200 0 1000 0H0L100 300H750Q800 300 800 350V576Q800 625 750 625H0V1401L1200 1400L1100 1100H400V875Z" />
<glyph unicode="6" glyph-name="six" horiz-adv-x="1300" d="M0 1200Q0 1400 200 1400H1100L1000 1100H450Q400 1100 400 1051V875H1000Q1200 875 1200 675V201Q1200 0 1000 0H200Q0 0 0 200V1200ZM400 300T450 300H750Q800 300 800 350V576Q800 625 750 625H400V351Q400
300 450 300Z" />
<glyph unicode="7" glyph-name="seven" horiz-adv-x="1300" d="M250 0L750 1100H0L100 1400H1200V1100L700 0H250Z" />
<glyph unicode="8" glyph-name="eight" horiz-adv-x="1300" d="M750 300Q800 300 800 350V525Q800 575 750 575H450Q400 575 400 525V350Q400 300 450 300H750ZM750 825Q800 825 800 875V1050Q800 1100 750 1100H450Q400 1100 400 1050V875Q400 825 450 825H750ZM1000
1400Q1200 1400 1200 1200V825Q1200 725 1125 700Q1200 675 1200 575V200Q1200 0 1000 0H200Q0 0 0 200V575Q0 675 75 700Q0 725 0 825V1200Q0 1400 200 1400H1000Z" />
<glyph unicode="9" glyph-name="nine" horiz-adv-x="1300" d="M1200 200Q1200 0 1000 0H100L200 300H750Q800 300 800 349V525H200Q0 525 0 725V1199Q0 1400 200 1400H1000Q1200 1400 1200 1200V200ZM800 1100T750 1100H450Q400 1100 400 1050V824Q400 775 450
775H800V1050Q800 1100 750 1100Z" />
<glyph unicode=":" glyph-name="colon" horiz-adv-x="500" d="M400 0H0V300H400V0ZM400 550H0V850H400V550Z" />
<glyph unicode=";" glyph-name="semicolon" horiz-adv-x="500" d="M400 550H0V850H400V550ZM0 0V300H400V0L200 -300H0L200 0H0Z" />
<glyph unicode="&lt;" glyph-name="less" horiz-adv-x="1200" d="M0 700L550 1300H1000L450 700L1000 100H550L0 700Z" />
<glyph unicode="=" glyph-name="equal" horiz-adv-x="1150" d="M0 600H1050V300H0V600ZM0 1100H1050V800H0V1100Z" />
<glyph unicode="&gt;" glyph-name="greater" horiz-adv-x="1200" d="M450 100H0L550 700L0 1300H450L1000 700L450 100Z" />
<glyph unicode="?" glyph-name="question" horiz-adv-x="1300" d="M700 0H300V300H700V0ZM800 875V1051Q800 1100 750 1100H0L100 1400H1000Q1200 1400 1200 1200V775Q1200 575 1000 575H750Q700 575 700 526V400H300V625Q300 825 500 825H750Q800 825 800 875Z" />
<glyph unicode="@" glyph-name="at" horiz-adv-x="1400" d="M900 750Q850 750 850 700Q850 650 900 650V750ZM450 1100Q400 1100 400 1050V350Q400 300 450 300H1200L1100 0H200Q0 0 0 200V1200Q0 1400 200 1400H1100Q1300 1400 1300 1200V400H650Q450 400 450
601V800Q450 1000 650 1000H900V1051Q900 1100 850 1100H450Z" />
<glyph unicode="A" glyph-name="A" horiz-adv-x="1500" d="M700 840L400 0H-25L475 1400H925L1425 0H500L600 300H893L700 840Z" />
<glyph unicode="B" glyph-name="B" horiz-adv-x="1300" d="M400 825H750Q800 825 800 875V1050Q800 1100 750 1100H400V825ZM400 300H750Q800 300 800 350V525Q800 575 750 575H400V300ZM1000 1400Q1200 1400 1200 1200V825Q1200 725 1125 700Q1200 675 1200 575V200Q1200
0 1000 0H0V1400H1000Z" />
<glyph unicode="C" glyph-name="C" horiz-adv-x="1300" d="M400 1100T400 1050V350Q400 300 450 300H1200L1100 0H200Q0 0 0 200V1200Q0 1400 200 1400H1200L1100 1100H450Q400 1100 400 1050Z" />
<glyph unicode="D" glyph-name="D" horiz-adv-x="1300" d="M1200 200Q1200 0 1000 0H0V1400H1000Q1200 1400 1200 1200V200ZM400 300H750Q800 300 800 350V1050Q800 1100 750 1100H400V300Z" />
<glyph unicode="E" glyph-name="E" horiz-adv-x="1300" d="M400 1100V825H1050V575H400V300H1200L1100 0H0V1400H1200L1100 1100H400Z" />
<glyph unicode="F" glyph-name="F" horiz-adv-x="1300" d="M400 1100V825H1050V575H400V0H0V1400H1200L1100 1100H400Z" />
<glyph unicode="G" glyph-name="G" horiz-adv-x="1300" d="M200 0Q0 0 0 200V1200Q0 1400 200 1400H1200L1100 1100H450Q400 1100 400 1050V350Q400 300 450 300H800V575H600V825H1200V0H200Z" />
<glyph unicode="H" glyph-name="H" horiz-adv-x="1300" d="M800 825V1400H1200V0H800V575H400V0H0V1400H400V825H800Z" />
<glyph unicode="I" glyph-name="I" horiz-adv-x="500" d="M400 1400V0H0V1400H400Z" />
<glyph unicode="J" glyph-name="J" horiz-adv-x="900" d="M400 300T400 350V1400H800V200Q800 0 600 0H0L100 300H350Q400 300 400 350Z" />
<glyph unicode="K" glyph-name="K" horiz-adv-x="1300" d="M400 782L775 1400H1225L800 700L1225 0H775L400 618V0H0V1400H400V782Z" />
<glyph unicode="L" glyph-name="L" horiz-adv-x="1300" d="M400 1400V300H1200L1100 0H0V1400H400Z" />
<glyph unicode="M" glyph-name="M" horiz-adv-x="1800" d="M650 1100H400V0H0V1400H1500Q1700 1400 1700 1200V0H1300V1050Q1300 1100 1250 1100H1050V0H650V1100Z" />
<glyph unicode="N" glyph-name="N" horiz-adv-x="1300" d="M1000 1400Q1200 1400 1200 1200V0H800V1050Q800 1100 750 1100H400V0H0V1400H1000Z" />
<glyph unicode="O" glyph-name="O" horiz-adv-x="1300" d="M1200 200Q1200 0 1000 0H200Q0 0 0 200V1200Q0 1400 200 1400H1000Q1200 1400 1200 1200V200ZM400 350Q400 300 451 300H750Q800 300 800 350V1050Q800 1100 750 1100H451Q400 1100 400 1050V350Z" />
<glyph unicode="P" glyph-name="P" horiz-adv-x="1300" d="M400 800H750Q800 800 800 850V1050Q800 1100 750 1100H400V800ZM0 1400H1000Q1200 1400 1200 1200V700Q1200 500 1000 500H400V0H0V1400Z" />
<glyph unicode="Q" glyph-name="Q" horiz-adv-x="1300" d="M800 825V1050Q800 1100 750 1100H451Q400 1100 400 1050V350Q400 300 451 300H705L450 825H800ZM200 0Q0 0 0 200V1200Q0 1400 200 1400H1000Q1200 1400 1200 1200V200Q1200 136 1180 93L1225 0H200Z" />
<glyph unicode="R" glyph-name="R" horiz-adv-x="1300" d="M946 575L1225 0H850L450 825H750Q800 825 800 875V1050Q800 1100 750 1100H400V0H0V1400H1000Q1200 1400 1200 1200V775Q1200 575 1000 575H946Z" />
<glyph unicode="S" glyph-name="S" horiz-adv-x="1300" d="M400 825T450 825H1000Q1200 825 1200 625V201Q1200 0 1000 0H0L100 300H750Q800 300 800 350V526Q800 575 750 575H200Q0 575 0 775V1200Q0 1400 200 1400H1200L1100 1100H450Q400 1100 400 1051V875Q400
825 450 825Z" />
<glyph unicode="T" glyph-name="T" horiz-adv-x="1200" d="M350 1100H0L-1 1400H1100V1100H750V0H350V1100Z" />
<glyph unicode="U" glyph-name="U" horiz-adv-x="1300" d="M200 0Q0 0 0 200V1400H400V350Q400 300 451 300H750Q800 300 800 350V1400H1200V200Q1200 0 1000 0H200Z" />
<glyph unicode="V" glyph-name="V" horiz-adv-x="1500" d="M475 0L-25 1400H400L700 560L1000 1400H1425L925 0H475Z" />
<glyph unicode="W" glyph-name="W" horiz-adv-x="1800" d="M650 1400H1050V300H1250Q1300 300 1300 350V1400H1700V200Q1700 0 1500 0H200Q0 0 0 200V1400H400V350Q400 300 450 300H650V1400Z" />
<glyph unicode="X" glyph-name="X" horiz-adv-x="1300" d="M375 700L-50 1400H400L600 1071L800 1400H1250L825 700L1250 0H800L600 329L400 0H-50L375 700Z" />
<glyph unicode="Y" glyph-name="Y" horiz-adv-x="1300" d="M400 400H200Q0 400 0 600V1400H400V750Q400 700 451 700H750Q800 700 800 750V1400H1200V600Q1200 400 1000 400H800V0H400V400Z" />
<glyph unicode="Z" glyph-name="Z" horiz-adv-x="1300" d="M0 300L700 1100H0L100 1400H1200V1100L500 300H1200L1100 0H0V300Z" />
<glyph unicode="[" glyph-name="bracketleft" horiz-adv-x="700" d="M400 200H600L500 -100H0V1500H600L500 1200H400V200Z" />
<glyph unicode="\" glyph-name="backslash" horiz-adv-x="1000" d="M400 1400L900 0H475L-25 1400H400Z" />
<glyph unicode="]" glyph-name="bracketright" horiz-adv-x="700" d="M200 1200H0L100 1500H600V-100H0L100 200H200V1200Z" />
<glyph unicode="^" glyph-name="asciicircum" horiz-adv-x="900" d="M0 1500V1800L400 2000L800 1800V1500L400 1700L0 1500Z" />
<glyph unicode="_" glyph-name="underscore" horiz-adv-x="1300" d="M0 -100H1200V-400H0V-100Z" />
<glyph unicode="`" glyph-name="grave" horiz-adv-x="800" d="M700 1500H450L0 1900H500L700 1500Z" />
<glyph unicode="a" glyph-name="a" horiz-adv-x="1200" d="M200 0Q0 0 0 201V525Q0 725 200 725H700V751Q700 800 650 800H0L100 1100H900Q1100 1100 1100 900V0H200ZM700 475H450Q400 475 400 426V350Q400 300 450 300H700V475Z" />
<glyph unicode="b" glyph-name="b" horiz-adv-x="1200" d="M0 0V1400H400V1100H900Q1100 1100 1100 900V200Q1100 0 900 0H0ZM400 300H650Q700 300 700 350V750Q700 800 650 800H400V300Z" />
<glyph unicode="c" glyph-name="c" horiz-adv-x="1200" d="M400 800T400 750V350Q400 300 450 300H1100L1000 0H200Q0 0 0 200V900Q0 1100 200 1100H1100L1000 800H450Q400 800 400 750Z" />
<glyph unicode="d" glyph-name="d" horiz-adv-x="1200" d="M200 0Q0 0 0 200V900Q0 1100 200 1100H700V1400H1100V0H200ZM700 800H450Q400 800 400 750V350Q400 300 450 300H700V800Z" />
<glyph unicode="e" glyph-name="e" horiz-adv-x="1200" d="M900 1100Q1100 1100 1100 899V575Q1100 375 900 375H400V349Q400 300 450 300H1000L900 0H200Q0 0 0 200V900Q0 1100 200 1100H900ZM400 625H650Q700 625 700 674V750Q700 800 650 800H450Q400 800 400
751V625Z" />
<glyph unicode="f" glyph-name="f" horiz-adv-x="1100" d="M1000 1400L900 1100H650Q600 1100 600 1050V825H900V575H600V0H200V575H0V825H200V1200Q200 1400 400 1400H1000Z" />
<glyph unicode="g" glyph-name="g" horiz-adv-x="1200" d="M700 800H450Q400 800 400 750V350Q400 300 450 300H700V800ZM700 -100T700 -50V0H200Q0 0 0 200V900Q0 1100 200 1100H1100V-200Q1100 -400 900 -400H100L200 -100H650Q700 -100 700 -50Z" />
<glyph unicode="h" glyph-name="h" horiz-adv-x="1200" d="M400 0H0V1400H400V1100H900Q1100 1100 1100 900V0H700V750Q700 800 650 800H400V0Z" />
<glyph unicode="i" glyph-name="i" horiz-adv-x="500" d="M0 1100H400V0H0V1100ZM400 1200H0V1400H400V1200Z" />
<glyph unicode="j" glyph-name="j" horiz-adv-x="500" d="M0 1100H400V-200Q400 -400 200 -400H-300L-200 -100H-50Q0 -100 0 -50V1100ZM400 1200H0V1400H400V1200Z" />
<glyph unicode="k" glyph-name="k" horiz-adv-x="1200" d="M400 629L700 1100H1125L775 550L1125 0H700L400 471V0H0V1400H400V629Z" />
<glyph unicode="l" glyph-name="l" horiz-adv-x="500" d="M0 1425H350V0H0V1425Z" />
<glyph unicode="m" glyph-name="m" horiz-adv-x="1700" d="M600 800H400V0H0V1100H1400Q1600 1100 1600 900V0H1200V750Q1200 800 1150 800H1000V0H600V800Z" />
<glyph unicode="n" glyph-name="n" horiz-adv-x="1200" d="M900 1100Q1100 1100 1100 900V0H700V750Q700 800 650 800H400V0H0V1100H900Z" />
<glyph unicode="o" glyph-name="o" horiz-adv-x="1200" d="M1100 200Q1100 0 900 0H200Q0 0 0 200V900Q0 1100 200 1100H900Q1100 1100 1100 900V200ZM400 350Q400 300 451 300H650Q700 300 700 350V750Q700 800 650 800H451Q400 800 400 750V350Z" />
<glyph unicode="p" glyph-name="p" horiz-adv-x="1200" d="M900 1100Q1100 1100 1100 900V200Q1100 0 900 0H400V-400H0V1100H900ZM400 300H650Q700 300 700 350V750Q700 800 650 800H400V300Z" />
<glyph unicode="q" glyph-name="q" horiz-adv-x="1200" d="M1100 1100V-400H700V0H200Q0 0 0 200V900Q0 1100 200 1100H1100ZM700 800H450Q400 800 400 750V350Q400 300 450 300H700V800Z" />
<glyph unicode="r" glyph-name="r" horiz-adv-x="1200" d="M400 800T400 750V0H0V900Q0 1100 200 1100H1100L1000 800H450Q400 800 400 750Z" />
<glyph unicode="s" glyph-name="s" horiz-adv-x="1200" d="M400 675T450 675H900Q1100 675 1100 475V201Q1100 0 900 0H0L100 300H650Q700 300 700 350V376Q700 425 650 425H200Q0 425 0 625V900Q0 1100 200 1100H1100L1000 800H450Q400 800 400 751V725Q400 675
450 675Z" />
<glyph unicode="t" glyph-name="t" horiz-adv-x="1000" d="M650 0H250V800H0V1100H250L249 1300H650V1100H900V800H650V0Z" />
<glyph unicode="u" glyph-name="u" horiz-adv-x="1200" d="M200 0Q0 0 0 200V1100H400V350Q400 300 451 300H650Q700 300 700 350V1100H1100V200Q1100 0 900 0H200Z" />
<glyph unicode="v" glyph-name="v" horiz-adv-x="1300" d="M375 0L-25 1100H400L600 550L800 1100H1225L825 0H375Z" />
<glyph unicode="w" glyph-name="w" horiz-adv-x="1700" d="M600 1100H1000V300H1150Q1200 300 1200 350V1100H1600V200Q1600 0 1400 0H200Q0 0 0 200V1100H400V350Q400 300 450 300H600V1100Z" />
<glyph unicode="x" glyph-name="x" horiz-adv-x="1200" d="M337 568L-50 1100H400L550 880L700 1100H1150L775 550L1150 0H750L569 248L400 0H-50L337 568Z" />
<glyph unicode="y" glyph-name="y" horiz-adv-x="1200" d="M700 1100H1100V-200Q1100 -400 900 -400H100L200 -100H650Q700 -100 700 -50V0H200Q0 0 0 200V1100H400V350Q400 300 450 300H700V1100Z" />
<glyph unicode="z" glyph-name="z" horiz-adv-x="1200" d="M0 300L600 800H0L100 1100H1100V800L500 300H1100L1000 0H0V300Z" />
<glyph unicode="{" glyph-name="braceleft" horiz-adv-x="1650" d="M910 1000L900 950L1200 1075L1210 1125L910 1000ZM165 1005L175 955L475 830L465 880L165 1005ZM140 1125L150 1075L450 950L440 1000L140 1125ZM885 880L875 830L1175 955L1185 1005L885 880ZM1225
225L975 125V550L1125 650L1150 775L1250 825L1225 225ZM175 1325L215 1165L500 1025L550 775H275L80 885L0 1325H175ZM675 975L800 1025L750 750V350H600V750L550 1025L675 975ZM100 825L200 775L225 650L375 550V125L125 225L100 825ZM800 305V650L925 550V100L860
60L810 235H540L490 60L425 100V550L550 650V305H800ZM780 190L830 0H520L570 190H780ZM700 1400Q950 1400 1125 1300L1100 1200Q1022 1158 675 1025Q328 1158 250 1200L225 1300Q400 1400 650 1400H700ZM675 1150L825 1235Q775 1275 700 1275H650Q575 1275 525
1235L675 1150ZM1350 1325L1270 885L1075 775H800L850 1025L1135 1165L1175 1325H1350Z" />
<glyph unicode="|" glyph-name="bar" horiz-adv-x="500" d="M400 1600V-200H0V1600H400Z" />
<glyph unicode="}" glyph-name="braceright" horiz-adv-x="1550" d="M790 640L875 450L1150 750V765L790 640ZM250 765V750L525 450L610 640L250 765ZM1251 225L774 0L1300 725L1251 225ZM700 675L875 825L1175 930L1186 990L890 890L900 975L1200 1070L1210 1135L915
1040L925 1125L1275 1250L1400 1400L1324 851L700 0L76 851L0 1400L125 1250L475 1125L485 1040L190 1135L200 1070L500 975L510 890L214 990L225 930L525 825L700 675ZM100 725L626 0L149 225L100 725ZM775 1225L900 1450L825 850L704 748L700 751L696 748L575
850L500 1450L625 1225H775ZM700 899L764 1101H636L700 899Z" />
<glyph unicode="~" glyph-name="asciitilde" horiz-adv-x="1000" d="M0 1700Q0 1900 200 1900H450Q500 1900 500 1950V2000H900V1800Q900 1600 700 1600H450Q400 1600 400 1550V1500H0V1700Z" />
</font>
</defs>
</svg>
