<?xml version="1.0" encoding="utf-8"?>
<!-- Generator: Adobe Illustrator 21.1.0, SVG Export Plug-In . SVG Version: 6.00 Build 0)  -->
<svg version="1.1" id="Layer_1" xmlns="http://www.w3.org/2000/svg" xmlns:xlink="http://www.w3.org/1999/xlink" x="0px" y="0px"
	 viewBox="0 0 89.8 89.8" style="enable-background:new 0 0 89.8 89.8;" xml:space="preserve">
<style type="text/css">
	.st0{fill:#860E1B;}
	.st1{fill:#FFFF00;}
</style>
<title>btn1</title>
<g id="Layer_2">
	<g id="Content">
		<path class="st0" d="M33,22.3c0.2,0,0.2,0.2,0.3,0.4c3.4-1.7,6.2-1.1,8.4-2.1c3.5,0.5,7,0.1,10.2,1.6c0.4-0.2,0.4-0.6,0.9-0.7
			c0.7,0.4,1.2,0.9,1.7,1.5c1.7,0,3.3,1,4.1,2.5c2.8,1.5,4.5,4.5,6.9,6.7c1.6,4.9,3.6,11,3.2,16.2c-0.3,3.2-1.9,5.9-1.9,8.9
			c-2.2,2.5-3.2,6.6-6.8,7.7c-0.8,0.5-0.4,1.6-1.5,1.9c0.1,0.6,0.4,1.2,0.2,1.5c-0.5,0.1-0.6-0.4-0.7-0.9c-2.9,0.1-3,2.1-5.4,2
			c-0.5,0.3-0.9,0.7-1.2,1.2c-4-0.2-7.8,2-10.7,0.7c-0.6,0-0.5,0.4-1,0.5c-1.5-0.3-4-2-5.4-0.6c-0.7,0-0.3-0.4-0.2-0.8
			c-1.7-0.3-2.7-1.9-4.7-1.3c-0.9-2.7-3.1-3.2-4.5-5c-0.2-0.4-0.9,0.2-1.1-0.2c-0.2-1.2-1.7-2.3-1-3.2c-0.9-1.1-2.1-1.8-2.9-3
			c0.1-3,0-6.6-2.2-8.7l0.2-0.5L17.7,48l0.2,0c0.3-1.8,1.1-3,0-5.1c0.5-2.1,2.4-3.4,2-6c1-0.5,0.7-1.7,1.6-2.2
			c0-0.8-0.5-0.9-0.6-1.6c1,0.2,1.2-0.8,1.3-1.7c3.9-2,6-5,9.8-7.1c0-0.2-0.1-0.4-0.2-0.6h0.4l0.2-0.4c0.5,0,0.3-0.4,0.3-0.7H33
			L33,22.3z"/>
		<path class="st0" d="M13.8,73.5c-0.6,0.2-1.2-0.3-0.9-0.9C13.6,72.3,13.7,72.9,13.8,73.5z"/>
		<path class="st0" d="M7.5,62c0.1-0.8,2-1,2.6-1.1C9.5,61.4,8.2,62.3,7.5,62z"/>
		<path class="st0" d="M0.1,39.6c1.2-0.4,1.6,0.4,2.7,0.2C2.7,40.5,0.6,40.3,0.1,39.6z"/>
		<path class="st0" d="M6.2,30.8c-0.6-0.5-0.8-1.3-0.7-2c0.9-0.1,0.9-0.5,1.6-0.4c0.4,0.2,0.5,1,0.6,1.6C7.3,30.3,6.7,30.6,6.2,30.8
			z"/>
		<path class="st0" d="M39.5,11.6c-0.2,0.3-1-2.4-0.9-2.6C39.7,9,38.9,10.7,39.5,11.6z"/>
		<path class="st0" d="M14.4,48.7c1.1,0,2.3,0,3.5,0.1c0.2,0,0.3-0.1,0.4-0.3c0-0.2-0.1-0.4-0.3-0.4c0,0,0,0,0,0
			C16.7,48,15.6,48,14.4,48c-0.2,0-0.3,0.2-0.4,0.3C14.1,48.5,14.2,48.7,14.4,48.7z"/>
		<path class="st0" d="M29.9,20.4c0.9,1,1.3,2.3,2.1,3.4c0.1,0.1,0.3,0.1,0.4,0c0.1-0.1,0.1-0.3,0-0.4c-0.8-1-1.2-2.4-2.1-3.4
			C30.2,20,30.1,20,30,20c0,0,0,0,0,0C29.8,20.2,29.8,20.3,29.9,20.4z"/>
		<path class="st0" d="M30.7,19.3c0.5,1.3,1.5,2.2,2,3.4c0,0.1,0.2,0.2,0.3,0.1c0,0,0,0,0,0c0.1,0,0.2-0.2,0.1-0.3c0,0,0,0,0,0
			c-0.6-1.2-1.6-2.1-2-3.3c0-0.1-0.1-0.2-0.2-0.1c0,0,0,0,0,0C30.7,19.1,30.7,19.2,30.7,19.3C30.7,19.3,30.7,19.3,30.7,19.3z"/>
		<path class="st0" d="M13.1,42.6c-3.2-0.2-6.4-0.3-9.6-0.2c-0.2,0-0.3,0.1-0.3,0.3S3.2,43,3.4,43c0,0,0,0,0,0
			c3.2-0.1,6.4,0,9.6,0.2c0.2,0,0.3-0.1,0.3-0.3c0,0,0,0,0,0C13.3,42.7,13.2,42.6,13.1,42.6z"/>
		<path class="st0" d="M18.1,27.4c0.6,0.6,1.3,1.2,2.1,1.6c0.1,0.1,0.2,0.1,0.3,0c0.1-0.1,0.1-0.2,0-0.3c0,0,0,0-0.1,0
			c-0.7-0.5-1.4-1-2-1.6C18.3,27,18.2,27,18.1,27C18,27.1,18,27.2,18.1,27.4z"/>
		<path class="st0" d="M35.4,0.3c0,0.2,0.1,0.4,0.1,0.5c0.2,0.9,0.5,1.7,0.8,2.5l0,0c0,0.2,0.2,0.3,0.3,0.2c0,0,0,0,0,0
			c0.2,0,0.3-0.2,0.2-0.3c0,0,0,0,0,0l0,0c-0.2-0.9-0.6-1.7-0.8-2.5c0-0.2-0.1-0.3-0.1-0.5c0-0.2-0.2-0.3-0.3-0.3c0,0,0,0,0,0
			C35.4,0,35.3,0.2,35.4,0.3C35.4,0.3,35.4,0.3,35.4,0.3z"/>
		<path class="st1" d="M37.1,40.6v-5h-5.5v1.3h4.2v17.3c-0.7,0.4-1,1.3-0.7,2s1.3,1,2,0.7c0.3-0.1,0.5-0.4,0.7-0.7h11
			c0.4,0.7,1.2,1.1,2,0.7c0.7-0.4,1.1-1.2,0.7-2s-1.2-1.1-2-0.7c-0.3,0.1-0.6,0.4-0.7,0.7h-11c-0.1-0.3-0.4-0.6-0.7-0.7v-4.5h12.7
			c1.3,0.1,2.5-0.5,3.2-1.6l4-7.5L37.1,40.6z"/>
	</g>
</g>
</svg>
