<svg xmlns="http://www.w3.org/2000/svg" viewBox="0 0 418.09 180.3"><defs><style>.cls-1{isolation:isolate;}.cls-2{fill:#ff0;}.cls-3{opacity:0.35;mix-blend-mode:multiply;}.cls-4{fill:gray;}</style></defs><title>Asset 5</title><g class="cls-1"><g id="Layer_2" ><g id="Content"><path class="cls-2" d="M83,52.81c-1.78-1.34-4.36-1.8-7.74-1.35L22.46,60.67,5.31,150.27,30,146l6.93-37.73,3.54-.6L51.83,142,74,138.12,62.72,104S68,103.17,73,102.15c6.91-1.41,6.72-8,7.71-12.46C81.9,83.15,85.16,66.23,86,60.2A7.35,7.35,0,0,0,83,52.81ZM59.42,88.6,38.25,92.23,41.17,75.6l21-4Z"/><path class="cls-2" d="M143.83,56.18l-45.47,8c-4,.7-7.69,4.49-8.5,8.76L79.33,128.3c-.94,4.91,2.26,8.46,6.87,7.65l45.44-8c4-.7,7.69-4.48,8.5-8.75l10.57-55.39C151.64,58.92,148.44,55.36,143.83,56.18Zm-25.77,55.19-12.27,2.1L112,80.74l12.21-2.15Z"/><path class="cls-2" d="M187.24,92.77l-1.31,6.63-12.28,2.11,6.2-32.73,12.21-2.15L190.84,73l24.79-4.31,3.19-16.85c.93-4.92-2.28-8.47-6.89-7.66l-45.78,8.07c-4,.71-7.68,4.5-8.49,8.76l-10.45,55.33c-.93,4.91,2.27,8.46,6.88,7.65l52.76-9.25,5.08-26.38Z"/><polygon class="cls-2" points="283.9 56.75 271.23 59.07 288.66 30.58 264.05 34.98 246.9 63.61 257.98 4.48 94.11 52.06 229.78 28.28 213.78 113.57 238.05 109.29 242.91 83.14 255.5 80.92 245.43 143.74 346.05 101.75 274.21 114.6 283.9 56.75"/><path class="cls-2" d="M344.85,90.67l3.72-19.73-37,6.53,1.65-8.4,28.7-5,3-15.81-29,5.08,1.82-8.61,23.79-4.2s3.67-19.66,3.69-19.73l-48.29,8.7-13.41,72Z"/><polygon class="cls-2" points="399.2 30.48 402.83 10.82 390.32 12.97 392.68 0 368.14 4.39 365.74 17.37 352.49 19.7 348.82 39.33 362.2 37.01 352.45 89.44 388.6 83.33 403.4 61.45 380.54 65.53 386.6 32.71 399.2 30.48"/><path class="cls-2" d="M418.09,12.59A5.08,5.08,0,1,1,413,7.64,5,5,0,0,1,418.09,12.59Zm-8.89,0a3.83,3.83,0,0,0,3.86,3.95,3.79,3.79,0,0,0,3.77-3.93,3.82,3.82,0,1,0-7.63,0Zm3,2.59H411.1V10.23a10,10,0,0,1,1.9-.15,3.13,3.13,0,0,1,1.72.36,1.39,1.39,0,0,1,.48,1.09,1.28,1.28,0,0,1-1,1.15v.06a1.46,1.46,0,0,1,.91,1.2,3.76,3.76,0,0,0,.36,1.24H414.2a4.31,4.31,0,0,1-.39-1.21c-.09-.54-.39-.78-1-.78h-.55Zm0-2.81h.55c.63,0,1.14-.21,1.14-.72s-.33-.75-1-.75a2.77,2.77,0,0,0-.64.06Z"/><g class="cls-3"><path class="cls-4" d="M95.09,68.12,141.17,60c4.87-.86,6.56,1.19,5.59,5.91L135,124l-6.23-4.61,10-48.24c1-4.55-.4-4.63-3.45-4.17l-33.81,6Z"/><polygon class="cls-4" points="121.05 113.61 102.11 116.95 109.83 79.09 103.57 74.42 94.08 124.22 95.86 123.9 100.87 123.02 127.4 118.34 121.05 113.61"/><polygon class="cls-4" points="188.14 101.78 170.29 104.93 178.01 67.07 171.75 62.4 162.26 112.19 164.04 111.88 169.05 111 194.38 106.53 188.14 101.78"/><polygon class="cls-4" points="199.56 102.5 198.67 108.11 204.84 112.83 208.7 91.3 206.92 91.62 201.91 92.51 189.13 94.79 199.56 102.5"/><polygon class="cls-4" points="308.74 39.44 304.48 63.46 334.11 58.24 340.15 61.26 342.13 50.96 312.68 56.15 315.13 44.24 308.74 39.44"/><polygon class="cls-4" points="304.25 64.63 300.13 87.77 337.62 81.16 343.29 87.22 345.64 73.88 308.34 80.46 310.64 69.43 304.25 64.63"/><path class="cls-4" d="M170.09,60.84,203.39,55l10,9.08,2.24-13.43a2.66,2.66,0,0,0-3.08-3.12l-49.27,8.68Z"/><polygon class="cls-4" points="169.4 31.13 243.38 20.43 228.18 101.83 234.12 106.24 252.42 9.47 169.4 31.13"/><polygon class="cls-4" points="261.82 130.35 310.15 111 270.81 118.31 280.85 59.98 266.42 62.52 284.27 33.73 284.1 33.76 265.85 36.98 272.65 41.62 255.16 70.36 272.6 67.29 261.82 130.35"/><polygon class="cls-4" points="305.65 36.23 333.7 31.29 339.36 37.35 341.72 24.01 299.31 31.49 305.65 36.23"/><polygon class="cls-4" points="377.76 27.86 369.35 75.78 381.32 73.67 387.44 81.29 398.66 64.52 377.56 68.48 384.15 32.67 377.76 27.86"/><polygon class="cls-4" points="387.49 15.87 389.72 3.23 370.66 6.58 381.25 12.6 379.1 23.21 389.18 21.43 397.37 26.54 400.06 13.66 387.49 15.87"/><polygon class="cls-4" points="360.73 26.78 364.23 26.16 365.28 20.11 354.39 22.03 360.73 26.78"/><path class="cls-4" d="M24.85,63.48,74.5,54.61c4.87-.86,7.7,2,6.73,6.68L74.45,100l-6.22-4.61,5-28.86c1-4.55-1.53-5.4-4.59-4.94L31.31,68.28Z"/><polygon class="cls-4" points="27.5 104.68 21 139.32 26.94 143.74 33.26 109.36 27.5 104.68"/><polygon class="cls-4" points="62.35 133.88 70.1 137.02 59.81 105.2 51.23 100.61 62.35 133.88"/><polygon class="cls-4" points="32.98 69.2 27.39 102.78 66.71 95.77 60.65 90.89 35.1 95.55 38.88 74.07 32.98 69.2"/></g><path class="cls-2" d="M14.89,158.13,3.72,160.18,0,180.3l11.15-2.05c1.48-.27,2.41-1.37,2.77-3.28l1-5.39a3.17,3.17,0,0,0,.06-.83.82.82,0,0,0-.56-.82,2.64,2.64,0,0,0,1.17-2l1-5.39a5.51,5.51,0,0,0,.09-1.22C16.61,158.34,16,157.93,14.89,158.13Zm-4.57,13-.46,2.51c-.1.48-.33.76-.7.83l-3.91.71L6,171.22l3.91-.72c.28-.05.42.05.44.31A.85.85,0,0,1,10.32,171.12Zm1.4-7.55-.47,2.52a.88.88,0,0,1-.69.82l-3.9.72.74-4,3.9-.72q.42-.07.45.3A.93.93,0,0,1,11.72,163.57Z"/><path class="cls-2" d="M39.78,153.55l-11.17,2-3.76,20.12,4.46-.82,3-15.81,3.91-.72c.28-.05.43,0,.45.29a1,1,0,0,1,0,.33l-.48,2.51a.87.87,0,0,1-.68.82l-3.35.62,2.24,11,4.18-.77L37,165.51l.6-.11q2.23-.41,2.78-3.28L41.48,156a4.57,4.57,0,0,0,.09-1.22C41.5,153.75,40.9,153.34,39.78,153.55Z"/><path class="cls-2" d="M64.61,149.33,55.67,151c-1.49.28-2.41,1.37-2.77,3.29l-2.72,14.37a4.74,4.74,0,0,0-.1,1.24c.08,1,.67,1.43,1.79,1.23l8.93-1.65c1.49-.27,2.41-1.36,2.78-3.28l2.73-14.38a4.52,4.52,0,0,0,.09-1.22C66.33,149.54,65.73,149.13,64.61,149.33Zm-3.19,5.44-1.9,10.07a.89.89,0,0,1-.7.82l-3.34.61c-.29,0-.44-.05-.46-.3a2,2,0,0,1,0-.31L57,155.59a.92.92,0,0,1,.72-.82l3.34-.61c.28-.06.42,0,.44.29A.93.93,0,0,1,61.42,154.77Z"/><path class="cls-2" d="M113.75,140.66l-11.19,2.05-3.87,20.12,11.18-2.05q2.23-.41,2.79-3.29l2.78-14.37a4.63,4.63,0,0,0,.1-1.22C115.47,140.86,114.87,140.45,113.75,140.66Zm-3.21,5.44-1.93,10.06a.91.91,0,0,1-.71.82l-3.91.72,2.22-11.5,3.92-.72c.28,0,.43.05.44.29A1,1,0,0,1,110.54,146.1Z"/><polygon class="cls-2" points="135.48 144.82 131 145.64 132.61 137.37 128.13 138.19 124.23 158.32 128.7 157.5 130.31 149.23 134.78 148.41 133.17 156.68 137.65 155.86 141.57 135.73 137.09 136.55 135.48 144.82"/><polygon class="cls-2" points="149.72 153.86 162.03 151.61 163.99 147.09 155.03 148.73 155.81 144.78 163.09 143.45 163.8 139.85 156.52 141.19 157.3 137.23 165.14 135.79 167.11 131.28 153.66 133.74 149.72 153.86"/><path class="cls-2" d="M214.12,123l-11.22,2-4,20.13,11.21-2.05c1.49-.28,2.43-1.37,2.82-3.29l2.88-14.38a5.09,5.09,0,0,0,.11-1.22C215.83,123.22,215.24,122.81,214.12,123Zm-3.26,5.44-2,10.07a.9.9,0,0,1-.71.82l-3.92.72,2.31-11.51,3.92-.71c.28-.06.43,0,.45.29A1.33,1.33,0,0,1,210.86,128.45Z"/><path class="cls-2" d="M231.5,124.85a.88.88,0,0,1,.7-.81l7.29-1.33,2-4.52-11.23,2c-1.49.28-2.43,1.37-2.81,3.29l-1.23,6.11a4.82,4.82,0,0,0-.12,1.24c.06,1,.65,1.43,1.78,1.22L234,131c.28-.06.42.05.44.3a1.67,1.67,0,0,1,0,.3l-.51,2.53a.91.91,0,0,1-.72.82l-7.29,1.33-2,4.52,11.21-2.05c1.5-.28,2.44-1.37,2.83-3.3l1.22-6.1a4.47,4.47,0,0,0,.13-1.24c-.07-1-.66-1.43-1.78-1.22L231.39,128c-.27.05-.42,0-.44-.31a1.78,1.78,0,0,1,0-.31Z"/><path class="cls-2" d="M81.87,146.27l-9.43,21.15,4.75-.87,1.22-2.74,5.45-1,.27,2.45,4.61-.84L86.9,145.35Zm-1.44,13,2.41-5.41.48,4.94Z"/><path class="cls-2" d="M181.88,128.73l-9.42,21.15,4.75-.87,1.22-2.74,5.44-1,.28,2.45,4.6-.85-1.83-19.09Zm-1.43,13,2.4-5.39.48,4.93Z"/></g></g></g></svg>