<svg xmlns="http://www.w3.org/2000/svg" viewBox="0 0 58.45 61.45"><defs><style>.cls-1,.cls-2{fill:#860e1b;}.cls-1{fill-rule:evenodd;}</style></defs><title>dot</title><g id="Layer_2" data-name="Layer 2"><g id="Content"><path class="cls-1" d="M21.79,55.66l-.5.13a.86.86,0,0,1-.24-1C21.68,54.67,21.89,55.09,21.79,55.66Z"/><path class="cls-1" d="M47.62,46.47l-.49.13c-.15-.21,0-.91-.39-.8C46.94,45.26,47.57,46,47.62,46.47Z"/><path class="cls-1" d="M12.13,48.66c.82,4.39-4.12-.67,0,0Z"/><path class="cls-1" d="M1.2,29.64c0,.24-1.25.74-1.19.11C.55,29.49.7,29.86,1.2,29.64Z"/><path class="cls-1" d="M50.6,14.85c0-.62,1.15-.52,1.13-1.15C52.26,14.07,51.1,14.63,50.6,14.85Z"/><path class="cls-1" d="M50.71,9.65c-.42.38-.67-.61-.13-.5Z"/><path class="cls-1" d="M9.6,9.14c-.18-.58-.14-1,.21-1.28s.41.25.75.17C10.86,8.76,10.31,9.48,9.6,9.14Z"/><path class="cls-1" d="M33.84,2.68c-.56,0-.44.44-.82.21-.1-.3.11-.4,0-.71C33.5,2,33.78,2.14,33.84,2.68Z"/><path class="cls-1" d="M9.31,5.13a.94.94,0,0,0,.37-.63c2.44-.34,4,.81,5.1,2.82C12.84,7.7,10.2,7.27,9.31,5.13Z"/><path class="cls-1" d="M34.36,53.21c-.06-.23-.1-.44-.16-.68-1.28.53-3-.58-3.61.38-.86-1-2.76-.24-3.9-.8-.86.14-.66.92-1.27,1.21-.29-.54.07-.71-.14-1.21A14.66,14.66,0,0,1,21.86,51c-.47.33-.46.06-.79.38l0-.16-.16,0c0-.07,0-.11,0-.17-1.69-.49-2.67-1.72-4.19-2a.87.87,0,0,1-.46.29L16,48.89l-.52-.2c.51-1-1.4-1.08-2.07-2-.15-.22,0-.65-.2-.84-1-1.16-2.22-2.34-3.08-3.15a3.85,3.85,0,0,0-.91.59c-.59,0-1.61.33-1.53.2a15.57,15.57,0,0,1,1.94-1.38c-.05-.93-.24-1.46-1-1.73-.15-3.07-1.73-5.67-2.48-7.76l.23-.15-.28,0c0-.15.19-.18.3-.25A10,10,0,0,0,6,27.72l.17-.35L6,27c.39-.15.24-.62.5-.84a2.65,2.65,0,0,0-1.33-.36c.35-.59,1.07.22,1.86-.3a13.42,13.42,0,0,0,1.14-5.27c2.26-1.72,1.87-5,4.72-6.37.76-.88.84-2.15,2.15-2.67-.17-.51-.54-.67-.79-1.06.36.2,1.3,1.06,2.25.5.36-1.17,1.22-1.74,2.8-2.14,1.9-.49,4.75-2.44,6.53-2,.79-.74,1.05-.11,2.31-.58l.25.29.08-.37c1.64,0,3.51.34,4.8.22l.18,0,.15-.13c3.57,1.12,7,2.45,9.83,4.84C44.35,10.58,44,9,45,9.32c.19.86-.46,1.22-.77,1.81.67.36,1.06,1.21,1.77,1.51a2.24,2.24,0,0,0,1.12-1.18c.5.36-.55,1-.7,1.44a13.41,13.41,0,0,0,2.33,3l-.35.35.48.15.08.34,0,.16.17,0c.06.14,0,.18-.13.21.22.64.75.77,1.17,1.13.11,1.19,1,1.84,1.29,3.06.26,1,0,2,.54,2.9.78,1.19,2.85,1.45,2.75,3.22-.26.34-1.34.06-1.91.13-.41.63-1,3.19.14,3.34,0,.21-.26.23-.45.3.1,2.5-2.29,4.94-1.22,7.09.26.66-.43.12-.53,0-.85.75.22,1.66.59,2.35-.44-.1-.64-.66-1.2-.58A1.35,1.35,0,0,0,51.53,41c-.17.86-1.08-.32-1.53-.5a11.64,11.64,0,0,0-3.21,4.72c-1.59,1.13-3.55,2-3.54,4.12l-.28,0,0,.28c-.34,0-.2-.77-.78-.34l-.56.13.36.46c-.58.45.13,1.05.25,1.71-.54-.2-.61-1.19-1-1.71C39.65,51,37.68,51.11,36.33,52l-.25,0,0,.28c-.21,0-.21-.28-.29-.46a.87.87,0,0,0-.37.62l-.28,0,0,.27c-.44-.28-.64.1-.37.62l-.18,0Z"/><path class="cls-1" d="M33.16,0A5,5,0,0,0,33,1.63C32.87,2,32.61.11,33.16,0"/><path class="cls-1" d="M8,.1A4.34,4.34,0,0,1,9.33,1.73,3.89,3.89,0,0,1,8,.1"/><path class="cls-2" d="M52.46,50.46a3.2,3.2,0,0,0,.77,1,4.85,4.85,0,0,1,.76.87.21.21,0,0,0,.34-.22,5.46,5.46,0,0,0-.83-.94,3,3,0,0,1-.68-.87.2.2,0,0,0-.27-.11A.22.22,0,0,0,52.46,50.46Z"/><path class="cls-2" d="M23.8,52.66c-.9,2.47-2.08,4.93-2.87,7.5a.17.17,0,0,0,.12.21.15.15,0,0,0,.19-.1c.77-2.55,2-5,2.86-7.51a.16.16,0,0,0-.1-.21A.15.15,0,0,0,23.8,52.66Z"/><path class="cls-2" d="M11.29,53.87c-2,2.28-3.52,4.83-5.56,6.92a.22.22,0,0,0,0,.29.19.19,0,0,0,.27,0c2.07-2.14,3.62-4.7,5.56-6.94a.19.19,0,0,0,0-.28A.19.19,0,0,0,11.29,53.87Z"/><path class="cls-2" d="M56.74,44.36a15.43,15.43,0,0,1-1.91-1.29l-.12,0,0,.14a16.37,16.37,0,0,0,1.91,1.31l.13-.06Z"/><path class="cls-2" d="M20.05,53.08a7.43,7.43,0,0,0,1.07-1.81l0-.14-.16.05a7.93,7.93,0,0,1-1,1.75v.16Z"/><path class="cls-2" d="M15.69,48.52a5.11,5.11,0,0,0-.95,1c-.26.34-.5.68-.74,1a.49.49,0,0,0,.69.69,8.82,8.82,0,0,0,.82-1.07,4.36,4.36,0,0,1,.78-.86.51.51,0,0,0,.07-.69A.48.48,0,0,0,15.69,48.52Z"/><path class="cls-2" d="M6.39,32.39c-1.37.15-2.75.17-4.16.24a.14.14,0,0,0-.11.15.14.14,0,0,0,.13.13c1.4-.08,2.78-.11,4.18-.25a.17.17,0,0,0,.11-.15A.16.16,0,0,0,6.39,32.39Z"/><path class="cls-2" d="M6.19,27.06c-1.59-.08-3.16,0-4.7-.19a.29.29,0,0,0-.33.27.3.3,0,0,0,.27.34c1.6.2,3.18.11,4.73.2a.29.29,0,0,0,.3-.29A.3.3,0,0,0,6.19,27.06Z"/><path class="cls-2" d="M27.75,3.94c.13.61.21,1.24.37,1.88,0,.14.08.27.13.43a.14.14,0,0,0,.19.1.16.16,0,0,0,.11-.2,3.37,3.37,0,0,1-.11-.41c-.15-.61-.24-1.23-.37-1.86a.15.15,0,0,0-.17-.12.15.15,0,0,0-.13.18Z"/><path class="cls-2" d="M34,.92c.22,1.78-.81,3.32-.73,5.17a.15.15,0,0,0,.17.15.14.14,0,0,0,.13-.17c-.08-1.7,1-3.26.73-5.18"/><path class="cls-2" d="M50,15.06a7.56,7.56,0,0,1-1.62.93l0,0a.2.2,0,0,0-.15.27.23.23,0,0,0,.26.17h0a8.56,8.56,0,0,0,1.71-1,.23.23,0,0,0,.09-.3A.22.22,0,0,0,50,15.06Z"/><path class="cls-2" d="M49.06,17a5.22,5.22,0,0,1,1.69-1l0,0,.08-.12-.13-.09,0,0a5.67,5.67,0,0,0-1.77,1.06l0,.17Z"/><path class="cls-2" d="M42.82,49.39c.34.92.92,1.62,1.23,2.46a.17.17,0,0,0,.22.09.17.17,0,0,0,.1-.21c-.35-.92-.92-1.62-1.24-2.47a.16.16,0,0,0-.2-.09A.17.17,0,0,0,42.82,49.39Z"/><path class="cls-2" d="M41.58,49.56a1,1,0,0,1,.65.56c.16.29.26.63.41.94a.16.16,0,0,0,.21.08.17.17,0,0,0,.07-.22c-.15-.28-.24-.62-.41-.95a1.36,1.36,0,0,0-.85-.73.17.17,0,0,0-.2.12A.18.18,0,0,0,41.58,49.56Z"/><path class="cls-2" d="M35.87,52a58.61,58.61,0,0,1,1.44,9.22.22.22,0,0,0,.23.21.21.21,0,0,0,.19-.22,58,58,0,0,0-1.45-9.3.21.21,0,0,0-.24-.17A.21.21,0,0,0,35.87,52Z"/><path class="cls-2" d="M35,52.44l.08.32c.31,1.26.39,2.61.63,3.93a.17.17,0,0,0,.33-.05c-.25-1.29-.31-2.66-.63-4a2.85,2.85,0,0,1-.09-.33.18.18,0,0,0-.21-.12A.17.17,0,0,0,35,52.44Z"/><path class="cls-2" d="M34.44,53.27c.09.93.19,1.87.26,2.79l.1.1.11-.12c-.07-.92-.17-1.86-.26-2.79l-.12-.1Z"/><path class="cls-2" d="M52.57,47.92c-1.15-1.06-2.12-2.21-3.28-3.27h-.17v.17c1.14,1,2.13,2.21,3.28,3.27h.19Z"/><path class="cls-2" d="M58.4,43.21a20.21,20.21,0,0,1-3.3-2l-.16,0,0,.15a20.46,20.46,0,0,0,3.34,2l.15-.05Z"/><path class="cls-2" d="M57.7,30.88a15.78,15.78,0,0,1-1.92,0l-.12.12.15.11a14.53,14.53,0,0,0,2,0l.08-.14Z"/><path class="cls-2" d="M13.88,1.77c.64,1.28,1.65,2.32,2.29,3.52l.15.05,0-.16c-.65-1.25-1.65-2.28-2.28-3.54l-.16,0Z"/><path class="cls-2" d="M6.33,1A9.52,9.52,0,0,0,8.09,3.07h.15V2.93A10,10,0,0,1,6.5.91"/></g></g></svg>