<svg xmlns="http://www.w3.org/2000/svg" viewBox="0 0 68.63 73.49"><defs><style>.cls-1,.cls-2{fill:#860e1b;}.cls-1{fill-rule:evenodd;}.cls-3{fill:#fff;}</style></defs><title>dot</title><g id="Layer_2" data-name="Layer 2"><g id="Content"><path class="cls-1" d="M32.86,22.27c.22,0,.23.21.32.36,3.39-1.71,6.19-1.14,8.4-2.1,3.5.52,7,.06,10.18,1.6.38-.17.4-.57.93-.66A6.28,6.28,0,0,1,54.38,23a4.75,4.75,0,0,1,4.1,2.49C61.27,26.95,63,30,65.37,32.16c1.55,4.87,3.64,11,3.19,16.2-.26,3.17-1.93,5.89-1.9,8.88-2.24,2.45-3.19,6.63-6.78,7.69-.75.48-.41,1.64-1.5,1.91.14.55.38,1.16.17,1.5-.46.08-.57-.41-.68-.94-2.92.05-3,2.12-5.37,2a3.62,3.62,0,0,0-1.22,1.19c-4-.21-7.81,2-10.7.72-.62,0-.47.43-1,.46-1.52-.34-4-2-5.38-.63-.74,0-.3-.43-.21-.83-1.66-.3-2.73-1.95-4.67-1.26-.91-2.7-3.08-3.25-4.53-5-.17-.4-.92.18-1.13-.16-.25-1.24-1.67-2.31-1-3.25-.92-1.13-2.06-1.85-2.94-3,.06-2.95,0-6.61-2.18-8.71l.22-.45L17.55,48l.21-.05c.28-1.78,1.15-3,0-5.08.49-2.1,2.39-3.37,2-6,1-.47.67-1.69,1.63-2.18,0-.82-.49-.93-.62-1.6,1,.21,1.22-.85,1.33-1.66,3.88-2,6-5,9.75-7.11,0-.2-.11-.41-.16-.61h.39l.15-.36c.47,0,.32-.4.28-.72l.33,0Z"/><path class="cls-1" d="M13.7,73.46c-.6.17-1.2-.35-.86-.88C13.45,72.33,13.6,72.86,13.7,73.46Z"/><path class="cls-1" d="M7.37,62c.14-.82,2-1,2.55-1.09C9.35,61.37,8.1,62.29,7.37,62Z"/><path class="cls-1" d="M0,39.61c1.17-.41,1.65.36,2.67.23C2.55,40.5.43,40.29,0,39.61Z"/><path class="cls-1" d="M6.06,30.79a2.3,2.3,0,0,1-.72-2c.91-.12.94-.54,1.62-.41.42.22.47,1,.63,1.61A5.12,5.12,0,0,1,6.06,30.79Z"/><path class="cls-1" d="M39.33,11.58c-.17.29-1-2.37-.87-2.64C39.61,9,38.81,10.72,39.33,11.58Z"/><path class="cls-2" d="M14.27,48.72c1.15,0,2.34,0,3.49.07a.36.36,0,0,0,.36-.34.34.34,0,0,0-.32-.37C16.61,48,15.43,48,14.28,48a.39.39,0,0,0-.36.35A.37.37,0,0,0,14.27,48.72Z"/><path class="cls-2" d="M29.77,20.41c.85,1,1.28,2.28,2.12,3.43a.26.26,0,1,0,.41-.33c-.78-1-1.21-2.38-2.13-3.44a.24.24,0,0,0-.36,0A.26.26,0,0,0,29.77,20.41Z"/><path class="cls-2" d="M30.6,19.34c.5,1.31,1.5,2.23,2,3.36a.2.2,0,0,0,.28.11.2.2,0,0,0,.11-.28c-.6-1.24-1.59-2.13-2-3.34a.2.2,0,0,0-.27-.13A.21.21,0,0,0,30.6,19.34Z"/><path class="cls-2" d="M12.92,42.57c-3.2-.2-6.44-.32-9.65-.22a.3.3,0,1,0,0,.6c3.2-.1,6.42,0,9.59.23a.3.3,0,0,0,.32-.29A.32.32,0,0,0,12.92,42.57Z"/><path class="cls-2" d="M17.93,27.36A12.51,12.51,0,0,0,20,29a.22.22,0,1,0,.27-.34,14.28,14.28,0,0,1-2-1.56A.25.25,0,0,0,18,27,.26.26,0,0,0,17.93,27.36Z"/><path class="cls-2" d="M35.25.34a4.86,4.86,0,0,0,.12.54c.21.88.54,1.71.75,2.55h0a.28.28,0,0,0,.35.22.29.29,0,0,0,.22-.35v0c-.23-.9-.56-1.71-.77-2.54a4.9,4.9,0,0,1-.11-.5A.29.29,0,0,0,35.47,0,.28.28,0,0,0,35.25.34Z"/><path class="cls-3" d="M37,40.6v-5H31.48v1.28h4.24V54.15a1.49,1.49,0,1,0,2,2h11a1.49,1.49,0,1,0,0-1.28h-11a1.49,1.49,0,0,0-.7-.7V49.71H49.68a3.62,3.62,0,0,0,3.22-1.57l4-7.55Z"/></g></g></svg>