<svg xmlns="http://www.w3.org/2000/svg" viewBox="0 0 132.88 142.29"><defs><style>.cls-1,.cls-2{fill:#860e1b;}.cls-1{fill-rule:evenodd;}.cls-3{fill:#fff;}</style></defs><title>send</title><g id="Layer_2" data-name="Layer 2"><g id="Content"><path class="cls-1" d="M63.63,43.12c.42-.08.45.41.62.69,6.56-3.31,12-2.21,16.26-4.07,6.77,1,13.46.12,19.71,3.1.73-.33.78-1.11,1.8-1.27a12.16,12.16,0,0,1,3.29,3c3.42.33,6.26,1.62,7.94,4.81,5.39,2.78,8.83,8.77,13.34,12.88,3,9.42,7.05,21.35,6.18,31.36-.51,6.15-3.74,11.41-3.68,17.19-4.34,4.74-6.19,12.84-13.12,14.88-1.45.93-.79,3.18-2.9,3.7.28,1.07.73,2.25.32,2.9-.89.16-1.11-.79-1.32-1.82-5.66.1-5.73,4.11-10.39,3.93a7,7,0,0,0-2.36,2.3c-7.68-.41-15.12,3.78-20.72,1.4-1.21,0-.9.84-1.89.89-2.95-.65-7.75-3.88-10.41-1.21-1.43,0-.58-.83-.41-1.61-3.22-.58-5.29-3.77-9-2.44-1.76-5.23-6-6.29-8.76-9.76-.33-.78-1.77.35-2.19-.31-.49-2.41-3.23-4.46-2-6.3-1.78-2.18-4-3.59-5.7-5.85.12-5.71,0-12.8-4.22-16.87l.42-.87L34,92.92l.42-.1c.54-3.46,2.22-5.72.07-9.84,1-4.07,4.63-6.52,3.81-11.66,1.86-.91,1.3-3.28,3.15-4.22-.06-1.6-1-1.81-1.19-3.09,1.87.42,2.37-1.64,2.58-3.22C50.33,57,54.33,51,61.68,47c-.09-.39-.21-.8-.3-1.19h.76l.3-.7c.9,0,.61-.77.53-1.4l.64.06Z"/><path class="cls-1" d="M26.53,142.23c-1.17.33-2.32-.69-1.67-1.7C26,140,26.33,141.07,26.53,142.23Z"/><path class="cls-1" d="M14.27,120.11c.28-1.6,3.86-2,4.94-2.1C18.1,118.83,15.69,120.61,14.27,120.11Z"/><path class="cls-1" d="M0,76.68c2.27-.79,3.2.69,5.17.44C4.95,78.42.84,78,0,76.68Z"/><path class="cls-1" d="M11.74,59.62a4.45,4.45,0,0,1-1.4-3.91c1.76-.24,1.83-1,3.14-.8.81.42.9,2,1.21,3.12A9.92,9.92,0,0,1,11.74,59.62Z"/><path class="cls-1" d="M76.15,22.43c-.33.57-2-4.59-1.68-5.12C76.69,17.51,75.15,20.76,76.15,22.43Z"/><path class="cls-2" d="M27.63,94.33c2.24,0,4.54,0,6.75.13a.7.7,0,0,0,.69-.65.66.66,0,0,0-.62-.72C32.15,93,29.87,93,27.64,93a.76.76,0,0,0-.69.68A.71.71,0,0,0,27.63,94.33Z"/><path class="cls-2" d="M57.64,39.52c1.64,1.84,2.47,4.41,4.1,6.63a.51.51,0,1,0,.79-.64c-1.51-2-2.34-4.6-4.13-6.65a.46.46,0,0,0-.69-.05A.51.51,0,0,0,57.64,39.52Z"/><path class="cls-2" d="M59.25,37.44c1,2.54,2.9,4.32,4,6.5a.39.39,0,0,0,.55.21A.39.39,0,0,0,64,43.6c-1.16-2.4-3.08-4.13-3.93-6.46a.39.39,0,0,0-.52-.25A.41.41,0,0,0,59.25,37.44Z"/><path class="cls-2" d="M25,82.42C18.82,82,12.55,81.79,6.32,82a.58.58,0,1,0,0,1.16c6.19-.19,12.43,0,18.57.45a.58.58,0,0,0,.61-.56A.62.62,0,0,0,25,82.42Z"/><path class="cls-2" d="M34.72,53c1.22,1.44,2.82,2.15,4,3.11a.43.43,0,1,0,.52-.66c-1.31-1.1-2.81-1.79-3.82-3a.48.48,0,0,0-.64-.07A.5.5,0,0,0,34.72,53Z"/><path class="cls-2" d="M68.25.66a9.41,9.41,0,0,0,.24,1.05C68.9,3.42,69.54,5,69.93,6.65v0a.54.54,0,0,0,.68.43A.57.57,0,0,0,71,6.43l0-.06c-.44-1.74-1.09-3.31-1.48-4.92a9.48,9.48,0,0,1-.21-1A.56.56,0,0,0,68.68,0,.53.53,0,0,0,68.25.66Z"/><path class="cls-3" d="M54,96.25a7.2,7.2,0,0,0-.22,1.44c0,.67.37.92,1.41.92,1.22,0,1.78-.41,2-1.44l.56-2.66a4.52,4.52,0,0,0,.11-.93c0-.67-.48-1-2-1.37A13,13,0,0,1,52.16,91a2.74,2.74,0,0,1-1.59-2.59,17.24,17.24,0,0,1,.37-3L51.27,84c1.11-5.18,2.59-6.33,8.29-6.33,4.33,0,6,.89,6,3.22a7.53,7.53,0,0,1-.15,1.59l-.63,3H59.71L60,84.23a8.92,8.92,0,0,0,.22-1.55c0-.67-.26-.81-1.26-.81-1.41,0-1.78.33-2.07,1.78l-.37,1.63a5.47,5.47,0,0,0-.11.92c0,.7.33,1,1.74,1.33,4.55,1.18,5.63,2,5.63,4.07a23.17,23.17,0,0,1-1.7,7.7A5.9,5.9,0,0,1,59.49,102a11.45,11.45,0,0,1-5.07.81c-4.4,0-6.18-.92-6.18-3.18a14.45,14.45,0,0,1,.37-3.14l.44-2h5.29Z"/><path class="cls-3" d="M70.62,77.9h11l-.92,4.44H75.4l-1.18,5.4h4.92L78.21,92H73.32L72,98.14h5.66l-.92,4.44H65.37Z"/><path class="cls-3" d="M89.46,83.34h-.07l-3.74,19.24H80.39L85.64,77.9H94l.11,19.24.07-.07L97.82,77.9h5.29l-5.25,24.68H89.53Z"/><path class="cls-3" d="M107.29,77.9h7.44q3.22,0,4.33.78a3.37,3.37,0,0,1,1.37,2.89,27.18,27.18,0,0,1-.67,5.59l-1.3,6.18c-1.67,7.66-3.29,9.29-9,9.25H102Zm1.41,20.24h1.52c1.22,0,1.59-.48,2-2.37l2.41-11.25a8.34,8.34,0,0,0,.18-1.37c0-.78-.33-1-1.18-1H112.1Z"/></g></g></svg>